<svg width="504" height="123" viewBox="0 0 504 123" fill="none" xmlns="http://www.w3.org/2000/svg">
<path d="M0 24C0 10.7452 10.7452 0 24 0H48V96H24C10.7452 96 0 85.2548 0 72V24Z" fill="#1A6FBF"/>
<path d="M60 0H108V96H84C70.7452 96 60 85.2548 60 72V0Z" fill="#1A6FBF"/>
<path d="M125.504 96V24.984H145.172V45.048L142.4 39.24C144.512 34.224 147.9 30.44 152.564 27.888C157.228 25.248 162.904 23.928 169.592 23.928V42.936C168.712 42.848 167.92 42.804 167.216 42.804C166.512 42.716 165.764 42.672 164.972 42.672C159.34 42.672 154.764 44.3 151.244 47.556C147.812 50.724 146.096 55.696 146.096 62.472V96H125.504Z" fill="#FAFAFA"/>
<path d="M201.888 122.664C198.192 122.664 194.54 122.092 190.932 120.948C187.324 119.804 184.376 118.22 182.088 116.196L189.612 101.544C191.196 102.952 193 104.052 195.024 104.844C197.136 105.636 199.204 106.032 201.228 106.032C204.132 106.032 206.42 105.328 208.092 103.92C209.852 102.6 211.436 100.356 212.844 97.188L216.54 88.476L218.124 86.232L243.6 24.984H263.4L231.324 100.356C229.036 106.076 226.396 110.564 223.404 113.82C220.5 117.076 217.244 119.364 213.636 120.684C210.116 122.004 206.2 122.664 201.888 122.664ZM214.032 98.772L182.352 24.984H203.604L228.156 84.384L214.032 98.772Z" fill="#FAFAFA"/>
<path d="M312.176 97.056C303.816 97.056 297.304 94.944 292.64 90.72C287.976 86.408 285.644 80.028 285.644 71.58V9.276H306.236V71.316C306.236 74.308 307.028 76.64 308.612 78.312C310.196 79.896 312.352 80.688 315.08 80.688C318.336 80.688 321.108 79.808 323.396 78.048L328.94 92.568C326.828 94.064 324.276 95.208 321.284 96C318.38 96.704 315.344 97.056 312.176 97.056ZM274.688 40.824V24.984H323.924V40.824H274.688Z" fill="#FAFAFA"/>
<path d="M374.951 97.056C368.879 97.056 363.027 96.352 357.395 94.944C351.851 93.448 347.451 91.6 344.195 89.4L351.059 74.616C354.315 76.64 358.143 78.312 362.543 79.632C367.031 80.864 371.431 81.48 375.743 81.48C380.495 81.48 383.839 80.908 385.775 79.764C387.799 78.62 388.811 77.036 388.811 75.012C388.811 73.34 388.019 72.108 386.435 71.316C384.939 70.436 382.915 69.776 380.363 69.336C377.811 68.896 374.995 68.456 371.915 68.016C368.923 67.576 365.887 67.004 362.807 66.3C359.727 65.508 356.911 64.364 354.359 62.868C351.807 61.372 349.739 59.348 348.155 56.796C346.659 54.244 345.911 50.944 345.911 46.896C345.911 42.408 347.187 38.448 349.739 35.016C352.379 31.584 356.163 28.9 361.091 26.964C366.019 24.94 371.915 23.928 378.779 23.928C383.619 23.928 388.547 24.456 393.563 25.512C398.579 26.568 402.759 28.108 406.103 30.132L399.239 44.784C395.807 42.76 392.331 41.396 388.811 40.692C385.379 39.9 382.035 39.504 378.779 39.504C374.203 39.504 370.859 40.12 368.747 41.352C366.635 42.584 365.579 44.168 365.579 46.104C365.579 47.864 366.327 49.184 367.823 50.064C369.407 50.944 371.475 51.648 374.027 52.176C376.579 52.704 379.351 53.188 382.343 53.628C385.423 53.98 388.503 54.552 391.583 55.344C394.663 56.136 397.435 57.28 399.899 58.776C402.451 60.184 404.519 62.164 406.103 64.716C407.687 67.18 408.479 70.436 408.479 74.484C408.479 78.884 407.159 82.8 404.519 86.232C401.879 89.576 398.051 92.216 393.035 94.152C388.107 96.088 382.079 97.056 374.951 97.056Z" fill="#FAFAFA"/>
<path d="M461.708 97.056C455.812 97.056 450.532 95.912 445.868 93.624C441.292 91.336 437.728 87.86 435.176 83.196C432.624 78.444 431.348 72.416 431.348 65.112V24.984H451.94V62.076C451.94 67.972 453.172 72.328 455.636 75.144C458.188 77.872 461.752 79.236 466.328 79.236C469.496 79.236 472.312 78.576 474.776 77.256C477.24 75.848 479.176 73.736 480.584 70.92C481.992 68.016 482.696 64.408 482.696 60.096V24.984H503.288V96H483.752V76.464L487.316 82.14C484.94 87.068 481.42 90.808 476.756 93.36C472.18 95.824 467.164 97.056 461.708 97.056Z" fill="#FAFAFA"/>
</svg>
